<svg width="151" height="40" viewBox="0 0 151 40" fill="none" xmlns="http://www.w3.org/2000/svg">
<path d="M11.3693 4.24375C13.2317 4.24375 14.9444 4.50417 16.5072 5.025C18.0701 5.54583 19.4767 5.88438 20.727 6.04063C20.0368 8.4625 20.0107 11.0732 20.6489 13.8727C19.9847 14.4326 19.2228 14.7581 18.3632 14.8492C18.259 14.6018 18.0701 14.0875 17.7966 13.3063C17.5361 12.512 17.2822 11.8609 17.0347 11.3531C16.8003 10.8453 16.4682 10.2659 16.0384 9.61484C15.6216 8.9638 15.0616 8.44948 14.3583 8.07188C13.668 7.68125 12.8735 7.41432 11.9749 7.27109C10.6594 7.38828 9.64357 7.79193 8.92725 8.48203C8.21092 9.17214 7.85276 10.0641 7.85276 11.1578C7.85276 12.2776 8.13929 13.2021 8.71235 13.9313C9.28541 14.6474 10.0278 15.1878 10.9395 15.5523C11.8642 15.9039 12.88 16.2164 13.9871 16.4898C15.0941 16.7503 16.1947 17.0758 17.2887 17.4664C18.3827 17.844 19.3856 18.3453 20.2972 18.9703C21.222 19.5823 21.9708 20.5003 22.5439 21.7242C23.117 22.9482 23.4035 24.4391 23.4035 26.1969C23.4035 28.3323 22.7848 30.1682 21.5476 31.7047C20.3103 33.2411 18.8516 34.3414 17.1715 35.0055C15.4914 35.6695 13.7722 36.0016 12.0139 36.0016C8.1458 36.0016 4.31673 35.1487 0.526732 33.443C0.604876 31.7633 0.643949 30.7346 0.643949 30.357C0.643949 28.2477 0.442076 25.982 0.0383301 23.5602C1.21049 23.0003 2.51941 22.9742 3.96508 23.482C4.44697 26.4378 5.37819 28.7034 6.75874 30.2789C8.15232 31.8544 9.67613 32.7333 11.3302 32.9156C12.88 32.8115 14.0717 32.3102 14.9053 31.4117C15.7519 30.5003 16.1751 29.3479 16.1751 27.9547C16.1751 26.7828 15.9016 25.7932 15.3546 24.9859C14.8076 24.1656 14.0848 23.5341 13.1861 23.0914C12.2875 22.6357 11.3106 22.2255 10.2557 21.8609C9.21378 21.4964 8.15883 21.1122 7.09085 20.7086C6.02288 20.2919 5.03957 19.7971 4.14091 19.2242C3.25527 18.6513 2.53895 17.8505 1.99194 16.8219C1.44493 15.7932 1.17142 14.5432 1.17142 13.0719C1.17142 11.7438 1.37981 10.5523 1.79658 9.49766C2.22637 8.44297 2.77989 7.59661 3.45714 6.95859C4.14742 6.32057 4.9484 5.78672 5.86008 5.35703C6.78479 4.92734 7.69647 4.63438 8.59513 4.47813C9.50682 4.32188 10.4315 4.24375 11.3693 4.24375ZM11.3693 5.04453C10.2752 5.04453 9.21378 5.17474 8.18488 5.43516C7.15598 5.68255 6.15312 6.09271 5.17632 6.66563C4.21254 7.23854 3.43761 8.07839 2.85153 9.18516C2.26544 10.2919 1.9724 11.5875 1.9724 13.0719C1.9724 14.387 2.24591 15.5198 2.79292 16.4703C3.33993 17.4078 4.05625 18.137 4.94189 18.6578C5.84055 19.1786 6.82386 19.6409 7.89183 20.0445C8.95981 20.4352 10.0148 20.8323 11.0567 21.2359C12.1116 21.6396 13.0884 22.0953 13.9871 22.6031C14.8858 23.1109 15.6086 23.8206 16.1556 24.732C16.7026 25.6305 16.9761 26.7047 16.9761 27.9547C16.9761 29.6865 16.4226 31.0862 15.3155 32.1539C14.2085 33.2216 12.6391 33.7555 10.6073 33.7555C8.65374 33.7555 6.83689 32.9417 5.15678 31.3141C3.47668 29.6865 2.36964 27.2516 1.83565 24.0094C1.57517 23.8401 1.2691 23.8401 0.917454 24.0094C1.2691 26.0536 1.44493 28.1695 1.44493 30.357C1.44493 30.969 1.41888 31.8349 1.36678 32.9547C4.59675 34.4521 7.67694 35.2008 10.6073 35.2008C13.0298 35.2008 15.27 34.4846 17.3278 33.0523C19.3856 31.607 20.4145 29.5888 20.4145 26.9977C20.4145 25.5263 20.1279 24.2828 19.5549 23.2672C18.9818 22.2385 18.2329 21.4378 17.3082 20.8648C16.3835 20.2919 15.3676 19.7971 14.2606 19.3805C13.1536 18.9638 12.053 18.5732 10.959 18.2086C9.86498 17.831 8.85561 17.4143 7.93091 16.9586C7.01922 16.5029 6.27685 15.8583 5.70379 15.025C5.13073 14.1786 4.84421 13.1565 4.84421 11.9586C4.84421 10.2789 5.41075 8.93776 6.54384 7.93516C7.67694 6.93255 9.28541 6.43125 11.3693 6.43125C14.9899 6.43125 17.484 8.93776 18.8516 13.9508C19.2553 14.0159 19.5353 13.9247 19.6916 13.6773C19.2618 10.5003 18.3176 8.26719 16.8589 6.97813C15.4132 5.68906 13.5833 5.04453 11.3693 5.04453Z" fill="#007BFF"/>
<path d="M33.3278 19.0094H41.0055C41.1878 18.5016 41.1878 18.0328 41.0055 17.6031H33.3278V13.3258C33.0022 13.1826 32.6766 13.1826 32.351 13.3258C31.8691 14.2242 31.3351 15.012 30.749 15.6891C30.163 16.3531 29.6681 16.8219 29.2643 17.0953C28.8736 17.3557 28.307 17.6943 27.5647 18.1109C27.4735 18.3844 27.4735 18.6839 27.5647 19.0094H29.9481V29.2438C29.9481 33.0589 31.524 34.9664 34.6758 34.9664C36.0173 34.9664 37.2546 34.6214 38.3877 33.9313C39.5207 33.2281 40.3673 32.3688 40.9273 31.3531C40.8101 31.0667 40.5952 30.9104 40.2827 30.8844C39.0584 31.9781 37.8732 32.525 36.7271 32.525C34.4609 32.525 33.3278 31.4964 33.3278 29.4391V19.0094ZM40.0482 30.0445C40.8687 30.1487 41.4548 30.5979 41.8065 31.3922C41.1292 32.6292 40.1459 33.6643 38.8565 34.4977C37.5671 35.344 36.1736 35.7672 34.6758 35.7672C31.003 35.7672 29.1666 33.5927 29.1666 29.2438V19.7906H26.7637C26.5683 19.1005 26.5683 18.3844 26.7637 17.6422C27.5582 17.1865 28.1638 16.8154 28.5805 16.5289C28.9973 16.2294 29.5183 15.7477 30.1434 15.0836C30.7686 14.4195 31.3221 13.6188 31.804 12.6813C33.0283 12.1734 34.4544 12.1995 36.0824 12.7594V16.8023H41.7674C42.1842 17.7659 42.1842 18.762 41.7674 19.7906H36.0824V29.4391C36.0824 30.6891 36.5317 31.4247 37.4304 31.6461C38.2118 31.4768 39.0844 30.943 40.0482 30.0445Z" fill="#007BFF"/>
<path d="M54.251 17.9156C55.5924 17.9156 56.6539 18.5602 57.4353 19.8492C58.2298 21.1253 58.627 23.1109 58.627 25.8063C58.627 28.5016 58.2298 30.4872 57.4353 31.7633C56.6539 33.0393 55.5924 33.6773 54.251 33.6773C53.5086 33.6773 52.8313 33.5211 52.2192 33.2086C51.6201 32.8961 51.1056 32.4143 50.6758 31.7633C50.2591 31.1122 49.9335 30.2984 49.699 29.3219C49.4646 28.3323 49.3474 27.1604 49.3474 25.8063C49.3474 24.4651 49.4646 23.2997 49.699 22.3102C49.9335 21.3076 50.2591 20.4872 50.6758 19.8492C51.1056 19.1982 51.6201 18.7164 52.2192 18.4039C52.8313 18.0784 53.5086 17.9156 54.251 17.9156ZM54.251 34.9664C55.4622 34.9664 56.5497 34.7385 57.5135 34.2828C58.4773 33.8271 59.2978 33.1956 59.975 32.3883C60.6653 31.568 61.1928 30.5979 61.5574 29.4781C61.9221 28.3583 62.1045 27.1344 62.1045 25.8063C62.1045 24.4781 61.9221 23.2542 61.5574 22.1344C61.1928 21.0146 60.6653 20.051 59.975 19.2438C59.2978 18.4234 58.4773 17.7854 57.5135 17.3297C56.5497 16.874 55.4622 16.6461 54.251 16.6461C52.9616 16.6461 51.7959 16.874 50.754 17.3297C49.7121 17.7854 48.8264 18.4169 48.0971 19.2242C47.3808 20.0315 46.8272 21.0016 46.4365 22.1344C46.0458 23.2542 45.8504 24.4781 45.8504 25.8063C45.8504 27.1474 46.0458 28.3779 46.4365 29.4977C46.8272 30.6174 47.3808 31.5875 48.0971 32.4078C48.8264 33.2151 49.7121 33.8466 50.754 34.3023C51.7959 34.7451 52.9616 34.9664 54.251 34.9664ZM54.9347 15.8453C56.5106 15.8453 57.9107 16.0862 59.135 16.568C60.3723 17.0497 61.4142 17.7333 62.2607 18.6188C63.1073 19.4911 63.752 20.5393 64.1948 21.7633C64.6376 22.9872 64.859 24.3349 64.859 25.8063C64.859 27.2646 64.6376 28.6057 64.1948 29.8297C63.752 31.0536 63.1073 32.1083 62.2607 32.9938C61.4272 33.8661 60.3918 34.5432 59.1545 35.025C57.9172 35.5198 56.5106 35.7672 54.9347 35.7672C53.3718 35.7672 51.9717 35.5198 50.7345 35.025C49.5102 34.5432 48.4748 33.8661 47.6282 32.9938C46.7947 32.1083 46.1565 31.0602 45.7137 29.8492C45.2709 28.6253 45.0495 27.2776 45.0495 25.8063C45.0495 24.3349 45.2709 22.9872 45.7137 21.7633C46.1565 20.5393 46.8012 19.4911 47.6478 18.6188C48.4943 17.7333 49.5297 17.0497 50.754 16.568C51.9783 16.0862 53.3718 15.8453 54.9347 15.8453ZM52.102 25.8063C52.102 30.012 53.0462 32.3427 54.9347 32.7984C56.8623 32.3427 57.8261 30.012 57.8261 25.8063C57.8261 21.6396 56.8623 19.3023 54.9347 18.7945C53.0462 19.3023 52.102 21.6396 52.102 25.8063Z" fill="#007BFF"/>
<path d="M75.4867 23.4039C75.8123 22.206 76.483 21.0406 77.4989 19.9078C78.5148 18.775 79.5502 18.2086 80.6051 18.2086C81.8424 18.2086 82.4611 18.6057 82.4611 19.4C82.4611 20.1161 82.1224 20.5719 81.4452 20.7672C81.2628 21.0276 81.2628 21.3336 81.4452 21.6852C82.1485 21.6852 82.7215 21.4703 83.1644 21.0406C83.6202 20.6109 83.8481 20.012 83.8481 19.2438C83.8481 18.4365 83.6007 17.8049 83.1057 17.3492C82.6239 16.8805 81.9922 16.6461 81.2107 16.6461C80.1949 16.6461 79.1725 17.0563 78.1436 17.8766C77.1277 18.6839 76.2421 19.5888 75.4867 20.5914V17.232C75.3825 17.0237 75.1611 16.8544 74.8224 16.7242C73.0772 17.5445 71.0585 18.0784 68.7663 18.3258C68.6881 18.6383 68.6881 18.9443 68.7663 19.2438C70.5245 19.3219 71.7813 19.5888 72.5367 20.0445C72.6409 24.9013 72.6279 28.7945 72.4977 31.7242C72.4716 32.6878 71.3646 33.3128 69.1765 33.5992C68.9812 33.9508 68.9812 34.2568 69.1765 34.5172C72.5888 34.3609 76.3072 34.3609 80.3316 34.5172C80.514 34.2568 80.514 33.9508 80.3316 33.5992C77.2449 33.3128 75.6885 32.6878 75.6625 31.7242C75.5453 29.081 75.4867 26.3076 75.4867 23.4039ZM78.4171 31.6852C78.4431 32.193 79.3223 32.5901 81.0545 32.8766C81.4842 33.7359 81.4582 34.5628 80.9763 35.357C75.4541 35.1747 71.2799 35.1357 68.4537 35.2398C67.9718 34.4716 67.9457 33.6839 68.3755 32.8766C70.5636 32.5901 71.6706 32.193 71.6967 31.6852C71.853 27.9742 71.866 24.2503 71.7357 20.5133C70.8762 20.2529 69.691 20.0836 68.1802 20.0055C67.8806 19.2242 67.8806 18.3974 68.1802 17.525C70.3552 17.3948 72.6605 16.8089 75.0959 15.7672C76.5025 15.9234 77.5575 16.3466 78.2608 17.0367C79.3548 16.2424 80.3381 15.8453 81.2107 15.8453C82.2266 15.8453 83.0536 16.1448 83.6918 16.7438C84.33 17.3427 84.6491 18.176 84.6491 19.2438C84.6491 20.2594 84.3495 21.0536 83.7504 21.6266C83.1513 22.1995 82.3829 22.4859 81.4452 22.4859C80.5726 22.4859 79.8432 22.193 79.2571 21.607C78.7231 22.3232 78.391 22.9742 78.2608 23.5602C78.2608 26.3857 78.3129 29.094 78.4171 31.6852Z" fill="#007BFF"/>
<path d="M97.4257 17.9156C98.4676 17.9156 99.223 18.2542 99.6919 18.9313C100.161 19.5953 100.395 20.4286 100.395 21.4313C100.395 21.8089 100.33 22.2385 100.2 22.7203H92.5807C92.9845 21.0927 93.6357 19.8883 94.5343 19.107C95.446 18.3128 96.4098 17.9156 97.4257 17.9156ZM92.3854 24.0484H103.033C103.241 23.3974 103.345 22.7268 103.345 22.0367C103.345 20.5133 102.909 19.2372 102.036 18.2086C101.177 17.1669 99.8026 16.6461 97.9141 16.6461C95.4525 16.6461 93.3817 17.538 91.7016 19.3219C90.0215 21.1057 89.1815 23.3714 89.1815 26.1188C89.1815 29.0484 89.9824 31.2555 91.5844 32.7398C93.1864 34.2242 95.0683 34.9664 97.2303 34.9664C98.8323 34.9664 100.317 34.5367 101.685 33.6773C103.065 32.8049 104.074 31.4964 104.713 29.7516C104.53 29.5432 104.276 29.4 103.951 29.3219C103.899 29.4 103.742 29.6148 103.482 29.9664C103.234 30.3049 103.052 30.5523 102.935 30.7086C102.818 30.8518 102.603 31.0667 102.29 31.3531C101.991 31.6266 101.698 31.8284 101.411 31.9586C101.138 32.0888 100.786 32.219 100.356 32.3492C99.9263 32.4664 99.4574 32.525 98.9495 32.525C96.9438 32.525 95.3484 31.9326 94.1632 30.7477C92.978 29.5497 92.3593 27.9417 92.3072 25.9234C92.3072 25.4677 92.3333 24.8427 92.3854 24.0484ZM103.638 28.4039C104.459 28.5862 105.123 28.9964 105.631 29.6344C104.888 31.6656 103.742 33.1956 102.192 34.2242C100.643 35.2529 98.9886 35.7672 97.2303 35.7672C94.8339 35.7672 92.7566 34.9599 90.9983 33.3453C89.2531 31.7307 88.3805 29.3219 88.3805 26.1188C88.3805 23.2151 89.2726 20.7802 91.0569 18.8141C92.8542 16.8349 95.3939 15.8453 98.676 15.8453C103.638 15.8453 106.119 17.9091 106.119 22.0367C106.119 22.844 105.93 23.7815 105.553 24.8492H95.0618V26.1188C95.1269 27.6943 95.5567 28.9768 96.3512 29.9664C97.1457 30.943 98.2397 31.5159 99.6333 31.6852C100.454 31.607 101.131 31.3271 101.665 30.8453C102.199 30.3635 102.857 29.5497 103.638 28.4039ZM99.5942 21.4313C99.5942 19.999 99.1123 19.1331 98.1485 18.8336C97.0024 19.1852 96.1493 20.2138 95.5893 21.9195H99.5551C99.5551 21.8674 99.5616 21.7893 99.5747 21.6852C99.5877 21.581 99.5942 21.4964 99.5942 21.4313Z" fill="#007BFF"/>
<path d="M146.961 36C146.961 38.22 145.18 40 142.96 40C141.898 40 140.881 39.5786 140.13 38.8284C139.38 38.0783 138.959 37.0609 138.959 36C138.959 33.78 140.739 32 142.96 32C144.021 32 145.038 32.4214 145.789 33.1716C146.539 33.9217 146.961 34.9391 146.961 36ZM122.955 32C120.734 32 118.954 33.78 118.954 36C118.954 37.0609 119.375 38.0783 120.126 38.8284C120.876 39.5786 121.894 40 122.955 40C125.175 40 126.956 38.22 126.956 36C126.956 33.78 125.175 32 122.955 32ZM123.355 25.26L123.295 25.5C123.295 25.78 123.515 26 123.795 26H146.961V30H122.955C121.894 30 120.876 29.5786 120.126 28.8284C119.375 28.0783 118.954 27.0609 118.954 26C118.954 25.3 119.134 24.64 119.434 24.08L122.154 19.18L114.953 4H110.952V0H117.493L119.374 4H148.961C150.061 4 150.962 4.9 150.962 6C150.962 6.34 150.862 6.68 150.722 7L143.56 19.94C142.88 21.16 141.559 22 140.059 22H125.155L123.355 25.26ZM125.955 18H128.956V14H124.075L125.955 18ZM130.957 14V18H136.958V14H130.957ZM136.958 12V8H130.957V12H136.958ZM143.18 14H138.959V18H140.959L143.18 14ZM146.52 8H138.959V12H144.3L146.52 8ZM121.234 8L123.115 12H128.956V8H121.234Z" fill="#007BFF"/>
</svg>
