<svg width="576" height="400" viewBox="0 0 576 400" fill="none" xmlns="http://www.w3.org/2000/svg">
<g clip-path="url(#clip0_7_24)">
<path d="M114.84 400C178.103 400 229.388 396.105 229.388 391.3C229.388 386.495 178.103 382.6 114.84 382.6C51.5764 382.6 0.29126 386.495 0.29126 391.3C0.29126 396.105 51.5764 400 114.84 400Z" fill="#E6E6E6"/>
<path d="M87.8501 88.7529C107.785 80.2739 132.614 85.6461 156.863 89.3746C157.088 84.8594 159.823 79.3641 156.958 76.214C153.477 72.3869 153.798 68.3658 155.893 64.3214C161.249 53.9794 153.575 42.975 145.827 33.8249C144.08 31.7672 141.873 30.1504 139.384 29.1059C136.896 28.0614 134.196 27.6186 131.504 27.8135L117.151 28.8387C113.658 29.0882 110.325 30.3983 107.598 32.5939C104.87 34.7895 102.878 37.7658 101.888 41.1245C98.4607 45.7856 96.6264 50.4338 97.7813 55.0577C92.6479 58.5658 91.7854 62.8005 94.0921 67.5743C96.0482 70.58 96.0274 73.5058 94.0032 76.3507C91.3448 79.9777 89.3087 84.0219 87.9784 88.3175L87.8501 88.7529Z" fill="#2F2E41"/>
<path d="M561.585 345.794H155.288C151.675 345.794 148.209 344.358 145.654 341.803C143.1 339.249 141.664 335.783 141.664 332.17C288.947 315.053 433.462 315.053 575.208 332.17C575.208 335.783 573.773 339.249 571.218 341.803C568.663 344.358 565.198 345.794 561.585 345.794Z" fill="#2F2E41"/>
<path d="M575.208 332.972L141.664 332.17L191.911 247.625L192.151 247.224V60.8965C192.151 58.6349 192.596 56.3954 193.462 54.3059C194.327 52.2164 195.595 50.3178 197.195 48.7186C198.794 47.1194 200.692 45.8509 202.782 44.9855C204.871 44.1201 207.111 43.6747 209.373 43.6749H505.096C507.358 43.6747 509.597 44.1201 511.687 44.9855C513.776 45.8509 515.675 47.1194 517.274 48.7186C518.873 50.3178 520.142 52.2164 521.007 54.3059C521.873 56.3954 522.318 58.6349 522.318 60.8965V248.507L575.208 332.972Z" fill="#3F3D56"/>
<path d="M208.98 55.6956C207.493 55.6972 206.067 56.2888 205.015 57.3404C203.964 58.3921 203.372 59.8179 203.37 61.3052V231.197C203.372 232.684 203.964 234.11 205.015 235.161C206.067 236.213 207.493 236.805 208.98 236.806H507.893C509.38 236.805 510.806 236.213 511.858 235.161C512.909 234.11 513.501 232.684 513.503 231.197V61.3052C513.501 59.8179 512.909 58.3921 511.858 57.3405C510.806 56.2889 509.38 55.6973 507.893 55.6956H208.98Z" fill="white"/>
<path d="M210.232 259.245C209.773 259.246 209.323 259.378 208.936 259.626C208.549 259.874 208.241 260.227 208.048 260.644L192.566 294.302C192.397 294.668 192.324 295.071 192.351 295.473C192.379 295.876 192.508 296.264 192.725 296.604C192.943 296.943 193.242 297.223 193.596 297.416C193.95 297.61 194.346 297.711 194.75 297.711H520.337C520.747 297.711 521.15 297.606 521.508 297.407C521.866 297.207 522.167 296.919 522.382 296.571C522.597 296.222 522.72 295.824 522.738 295.415C522.757 295.005 522.67 294.598 522.487 294.232L505.658 260.574C505.459 260.174 505.153 259.837 504.773 259.602C504.393 259.367 503.955 259.244 503.508 259.245H210.232Z" fill="#2F2E41"/>
<path d="M357.234 52.8908C359.226 52.8908 360.841 51.2763 360.841 49.2847C360.841 47.293 359.226 45.6785 357.234 45.6785C355.243 45.6785 353.628 47.293 353.628 49.2847C353.628 51.2763 355.243 52.8908 357.234 52.8908Z" fill="white"/>
<path d="M325.232 304.122C324.703 304.123 324.19 304.297 323.77 304.619C323.351 304.94 323.049 305.391 322.911 305.901L319.027 320.326C318.931 320.682 318.918 321.056 318.99 321.418C319.062 321.78 319.216 322.12 319.44 322.413C319.665 322.706 319.953 322.943 320.284 323.107C320.615 323.27 320.979 323.355 321.348 323.355H395.206C395.589 323.355 395.967 323.263 396.308 323.088C396.648 322.912 396.942 322.658 397.164 322.345C397.386 322.033 397.531 321.672 397.585 321.293C397.64 320.913 397.603 320.527 397.477 320.164L392.484 305.74C392.32 305.267 392.014 304.858 391.607 304.568C391.199 304.278 390.712 304.122 390.212 304.122H325.232Z" fill="#2F2E41"/>
<path d="M522.318 244.42V247.625H191.911L192.159 247.225V244.42H522.318Z" fill="#2F2E41"/>
<path d="M513.102 112.193C544.083 112.193 569.198 87.0774 569.198 56.0963C569.198 25.1152 544.083 0 513.102 0C482.121 0 457.006 25.1152 457.006 56.0963C457.006 87.0774 482.121 112.193 513.102 112.193Z" fill="#007BFF"/>
<path d="M536.342 80.5383H489.862C489.012 80.5374 488.197 80.1994 487.596 79.5985C486.995 78.9975 486.657 78.1827 486.656 77.3328V49.2846C486.657 48.4347 486.995 47.6199 487.596 47.019C488.197 46.418 489.012 46.08 489.862 46.0791H536.342C537.192 46.08 538.006 46.418 538.607 47.019C539.208 47.6199 539.546 48.4347 539.547 49.2846V77.3327C539.546 78.1826 539.208 78.9975 538.607 79.5985C538.007 80.1994 537.192 80.5374 536.342 80.5383ZM489.862 49.2846V77.3328H536.344L536.342 49.2846L489.862 49.2846Z" fill="white"/>
<path d="M527.527 49.2846H498.677V36.4626C498.677 27.1755 504.744 20.4351 513.102 20.4351C521.46 20.4351 527.527 27.1755 527.527 36.4626L527.527 49.2846ZM501.883 46.0791H524.321V36.4626C524.321 28.9133 519.708 23.6406 513.102 23.6406C506.496 23.6406 501.883 28.9133 501.883 36.4626L501.883 46.0791Z" fill="white"/>
<path d="M513.102 65.7128C514.872 65.7128 516.307 64.2776 516.307 62.5073C516.307 60.7369 514.872 59.3018 513.102 59.3018C511.332 59.3018 509.896 60.7369 509.896 62.5073C509.896 64.2776 511.332 65.7128 513.102 65.7128Z" fill="white"/>
<path d="M473.942 179.181H242.931C241.797 179.18 240.71 178.728 239.908 177.926C239.106 177.124 238.654 176.037 238.653 174.903V117.599C238.654 116.465 239.106 115.377 239.908 114.576C240.71 113.774 241.797 113.322 242.931 113.321H473.942C475.076 113.322 476.163 113.774 476.965 114.576C477.767 115.377 478.218 116.465 478.22 117.599V174.903C478.218 176.037 477.767 177.124 476.965 177.926C476.163 178.728 475.076 179.18 473.942 179.181ZM242.931 115.032C242.25 115.033 241.598 115.304 241.117 115.785C240.636 116.266 240.365 116.919 240.364 117.599V174.903C240.365 175.583 240.636 176.236 241.117 176.717C241.598 177.198 242.25 177.469 242.931 177.47H473.942C474.622 177.469 475.275 177.198 475.756 176.717C476.237 176.236 476.508 175.583 476.509 174.903V117.599C476.508 116.918 476.237 116.266 475.756 115.785C475.275 115.304 474.622 115.033 473.942 115.032L242.931 115.032Z" fill="#E6E6E6"/>
<path d="M278.825 161.478C288.45 161.478 296.252 153.677 296.252 144.052C296.252 134.428 288.45 126.626 278.825 126.626C269.201 126.626 261.399 134.428 261.399 144.052C261.399 153.677 269.201 161.478 278.825 161.478Z" fill="#E6E6E6"/>
<path d="M319.072 132.435C318.69 132.434 318.312 132.509 317.959 132.655C317.606 132.8 317.285 133.014 317.015 133.284C316.745 133.554 316.53 133.874 316.384 134.227C316.238 134.579 316.163 134.957 316.163 135.339C316.163 135.721 316.238 136.099 316.384 136.452C316.53 136.804 316.745 137.125 317.015 137.395C317.285 137.664 317.606 137.878 317.959 138.024C318.312 138.169 318.69 138.244 319.072 138.244H455.992C456.762 138.244 457.501 137.938 458.045 137.393C458.59 136.848 458.896 136.109 458.896 135.339C458.896 134.569 458.59 133.83 458.045 133.285C457.501 132.741 456.762 132.435 455.992 132.435H319.072Z" fill="#E6E6E6"/>
<path d="M319.072 149.861C318.301 149.861 317.563 150.167 317.018 150.712C316.473 151.256 316.167 151.995 316.167 152.765C316.167 153.536 316.473 154.274 317.018 154.819C317.563 155.364 318.301 155.67 319.072 155.67H377.989C378.759 155.67 379.498 155.364 380.042 154.819C380.587 154.274 380.893 153.536 380.893 152.765C380.893 151.995 380.587 151.256 380.042 150.712C379.498 150.167 378.759 149.861 377.989 149.861H319.072Z" fill="#E6E6E6"/>
<path d="M191.342 151.036L148.638 173.739L148.097 154.82C162.036 152.493 175.297 148.442 187.558 141.846L192.025 130.812C192.511 129.61 193.302 128.555 194.32 127.75C195.337 126.946 196.547 126.42 197.829 126.224C199.111 126.028 200.422 126.169 201.634 126.633C202.845 127.097 203.915 127.868 204.738 128.871C205.943 130.337 206.545 132.207 206.423 134.101C206.3 135.994 205.463 137.771 204.08 139.07L191.342 151.036Z" fill="#FFB8B8"/>
<path d="M86.9987 282.118C86.6871 280.975 86.621 279.779 86.8046 278.609C86.9882 277.439 87.4173 276.322 88.0639 275.329L97.4447 260.933C99.6635 257.528 103.068 255.068 106.998 254.031C110.928 252.994 115.103 253.454 118.712 255.322C114.77 262.033 115.319 267.92 120.074 273.036C112.693 276.639 105.872 281.29 99.8205 286.843C98.7159 287.596 97.4473 288.075 96.1203 288.238C94.7934 288.402 93.4467 288.246 92.1922 287.783C90.9378 287.321 89.812 286.566 88.9086 285.58C88.0052 284.595 87.3503 283.407 86.9987 282.118Z" fill="#2F2E41"/>
<path d="M193.287 263.294C191.868 265.66 189.864 267.621 187.468 268.989C185.072 270.358 182.365 271.088 179.606 271.108L117.286 271.581L114.583 255.904L142.151 247.796L118.907 229.958L144.313 200.227L190.459 243.236C193.156 245.75 194.909 249.114 195.423 252.764C195.938 256.415 195.184 260.132 193.287 263.294Z" fill="#2F2E41"/>
<path d="M107.555 370.503H92.9603C79.856 280.678 66.5172 190.602 105.934 156.982L152.422 164.55L146.476 204.011L120.529 233.741L107.555 370.503Z" fill="#2F2E41"/>
<path d="M120.385 390.851C119.243 391.162 118.047 391.229 116.877 391.045C115.707 390.862 114.589 390.432 113.597 389.786L97.7499 387.656C94.3446 385.437 91.8848 382.033 90.8478 378.103C89.8108 374.173 90.2705 369.999 92.1377 366.389C98.8488 370.331 104.736 369.781 109.852 365.026C113.467 372.325 119.422 371.88 125.11 378.029C125.863 379.133 126.342 380.402 126.505 381.729C126.669 383.056 126.513 384.402 126.051 385.657C125.589 386.911 124.833 388.037 123.848 388.941C122.862 389.844 121.675 390.499 120.385 390.851Z" fill="#2F2E41"/>
<path d="M142.151 96.98L115.123 90.4933C119.612 81.3048 119.982 71.0808 117.826 60.222L136.205 59.6814C136.781 73.1846 138.523 85.8001 142.151 96.98Z" fill="#FFB8B8"/>
<path d="M149.58 180.826C129.904 194.233 116.002 181.284 105.393 161.307C106.868 149.082 104.481 134.452 100.06 118.556C98.0937 111.545 98.8277 104.052 102.117 97.5552C105.406 91.0588 111.011 86.0315 117.826 83.4661L141.07 93.1962C160.807 109.284 164.692 126.71 157.287 145.09L149.58 180.826Z" fill="#007BFF"/>
<path d="M92.9603 110.494L71.338 121.846L109.718 144.549L115.058 157.722C115.414 158.601 115.588 159.544 115.568 160.492C115.549 161.441 115.336 162.375 114.943 163.239C114.55 164.102 113.986 164.877 113.284 165.515C112.582 166.154 111.758 166.642 110.861 166.952C109.841 167.303 108.754 167.414 107.685 167.275C106.615 167.137 105.592 166.752 104.696 166.152C103.8 165.552 103.055 164.753 102.519 163.817C101.984 162.881 101.672 161.834 101.609 160.757L101.069 151.576L52.2886 135.479C50.6451 134.937 49.1466 134.027 47.9065 132.82C46.6664 131.613 45.7173 130.139 45.131 128.511C44.2765 126.137 44.233 123.547 45.0074 121.146C45.7817 118.745 47.3301 116.669 49.4104 115.242L88.6359 88.3311L92.9603 110.494Z" fill="#FFB8B8"/>
<path d="M114.583 112.656C105.565 108.704 97.3647 112.997 87.0142 116.44L85.3926 87.7905C95.6701 82.3127 105.469 80.8358 114.583 85.0878L114.583 112.656Z" fill="#007BFF"/>
<path d="M125.37 73.8726C134.9 73.8726 142.626 66.1467 142.626 56.6163C142.626 47.0859 134.9 39.36 125.37 39.36C115.84 39.36 108.114 47.0859 108.114 56.6163C108.114 66.1467 115.84 73.8726 125.37 73.8726Z" fill="#FFB8B8"/>
<path d="M146.014 54.439C128.929 56.1124 115.91 53.3181 107.59 45.3621V38.9548H144.564L146.014 54.439Z" fill="#2F2E41"/>
</g>
<defs>
<clipPath id="clip0_7_24">
<rect width="574.917" height="400" fill="white" transform="translate(0.29126)"/>
</clipPath>
</defs>
</svg>
