<svg width="558" height="400" viewBox="0 0 558 400" fill="none" xmlns="http://www.w3.org/2000/svg">
<g clip-path="url(#clip0_19_31)">
<path d="M14.8477 399.118C14.8477 399.607 15.2407 400 15.7301 400H556.526C557.015 400 557.408 399.607 557.408 399.118C557.408 398.628 557.015 398.235 556.526 398.235H15.7301C15.2407 398.235 14.8477 398.628 14.8477 399.118Z" fill="#3F3D58"/>
<path d="M188.019 70.5573H14.5738C7.95924 70.5573 2.57568 65.1737 2.57568 58.5592C2.57568 51.9447 7.95924 46.5612 14.5738 46.5612H188.019C194.634 46.5612 200.017 51.9447 200.017 58.5592C200.017 65.1737 194.634 70.5573 188.019 70.5573ZM14.5738 48.0442C8.77493 48.0442 4.05876 52.7604 4.05876 58.5592C4.05876 64.3581 8.77493 69.0742 14.5738 69.0742H188.019C193.818 69.0742 198.534 64.3581 198.534 58.5592C198.534 52.7604 193.818 48.0442 188.019 48.0442H14.5738Z" fill="#E2E3E4"/>
<path d="M188.019 210.967H14.5736C8.1593 210.967 2.94629 205.754 2.94629 199.34C2.94629 192.926 8.1593 187.713 14.5736 187.713H188.019C194.433 187.713 199.646 192.926 199.646 199.34C199.646 205.754 194.433 210.967 188.019 210.967Z" fill="#007BFF"/>
<path d="M131.18 23.2546H11.7186C5.30432 23.2546 0.0913086 18.0416 0.0913086 11.6273C0.0913086 5.21301 5.30432 0 11.7186 0H131.18C137.595 0 142.808 5.21301 142.808 11.6273C142.808 18.0416 137.595 23.2546 131.18 23.2546Z" fill="#E2E3E4"/>
<path d="M188.019 117.482H14.5738C7.95924 117.482 2.57568 112.098 2.57568 105.484C2.57568 98.8692 7.95924 93.4856 14.5738 93.4856H188.019C194.634 93.4856 200.017 98.8692 200.017 105.484C200.017 112.098 194.634 117.482 188.019 117.482ZM14.5738 94.9687C8.77493 94.9687 4.05876 99.6848 4.05876 105.484C4.05876 111.282 8.77493 115.999 14.5738 115.999H188.019C193.818 115.999 198.534 111.282 198.534 105.484C198.534 99.6848 193.818 94.9687 188.019 94.9687H14.5738Z" fill="#E2E3E4"/>
<path d="M188.019 164.414H14.5738C7.95924 164.414 2.57568 159.03 2.57568 152.416C2.57568 145.801 7.95924 140.417 14.5738 140.417H188.019C194.634 140.417 200.017 145.801 200.017 152.416C200.017 159.03 194.634 164.414 188.019 164.414ZM14.5738 141.901C8.77493 141.901 4.05876 146.617 4.05876 152.416C4.05876 158.214 8.77493 162.931 14.5738 162.931H188.019C193.818 162.931 198.534 158.214 198.534 152.416C198.534 146.617 193.818 141.901 188.019 141.901H14.5738Z" fill="#E2E3E4"/>
<path d="M8.61156 37.9445H54.0678C55.1504 37.9445 56.0329 38.8195 56.0329 39.9095C56.0329 40.9922 55.1504 41.8746 54.0678 41.8746H8.61156C7.52891 41.8746 6.64648 40.9996 6.64648 39.9095C6.64648 38.8269 7.52891 37.9445 8.61156 37.9445Z" fill="#E2E3E4"/>
<path d="M8.61156 85.9812H54.0678C55.1504 85.9812 56.0329 86.8562 56.0329 87.9389C56.0329 89.0215 55.1504 89.9039 54.0678 89.9039H8.61156C7.52891 89.9039 6.64648 89.0289 6.64648 87.9463C6.64648 86.8636 7.52891 85.9812 8.61156 85.9812Z" fill="#E2E3E4"/>
<path d="M8.61156 134.025H54.0678C55.1504 134.025 56.0329 134.9 56.0329 135.99C56.0329 137.073 55.1504 137.948 54.0678 137.948H8.61156C7.52891 137.948 6.64648 137.073 6.64648 135.983C6.64648 134.9 7.52891 134.025 8.61156 134.025Z" fill="#E2E3E4"/>
<path d="M331.618 98.0757L315.037 103.533V79.6633H330.083L331.618 98.0757Z" fill="#9F616A"/>
<path d="M317.091 86.2704C326.216 86.2704 333.613 78.8735 333.613 69.749C333.613 60.6244 326.216 53.2275 317.091 53.2275C307.967 53.2275 300.57 60.6244 300.57 69.749C300.57 78.8735 307.967 86.2704 317.091 86.2704Z" fill="#9F616A"/>
<path d="M321.629 68.1102C318.863 68.0286 317.047 65.233 315.971 62.6821C314.896 60.1312 313.791 57.2021 311.226 56.1492C309.127 55.289 305.427 61.11 303.773 59.5602C302.045 57.9437 303.729 49.6459 305.56 48.1554C307.392 46.6649 309.898 46.3757 312.256 46.2645C318.011 45.9975 323.802 46.4647 329.445 47.6437C332.938 48.3704 336.527 49.4679 339.048 51.9891C342.237 55.1926 343.052 60.02 343.282 64.5359C343.519 69.1557 343.253 73.9905 341.006 78.0319C338.759 82.0733 334.057 85.0543 329.549 84.0235C329.097 81.5765 329.556 79.0627 329.734 76.5711C329.905 74.0869 329.727 71.4026 328.207 69.4227C326.694 67.4428 323.446 66.6567 321.681 68.4142" fill="#2F2E43"/>
<path d="M341.955 73.8348C343.609 72.6261 345.588 71.6102 347.62 71.8623C349.815 72.1293 351.676 73.9386 352.24 76.0817C352.804 78.2247 352.173 80.5828 350.809 82.3328C349.452 84.0829 347.427 85.2397 345.292 85.8181C344.053 86.1518 342.696 86.2926 341.517 85.7884C339.782 85.0395 338.84 82.8223 339.523 81.0574" fill="#2F2E43"/>
<path d="M278.732 229.283C277.627 234.711 279.651 239.672 283.24 240.362C286.829 241.051 290.633 237.203 291.731 231.775C292.198 229.61 292.124 227.37 291.516 225.234L305.182 140.143L288.09 136.925L281.49 223.314C280.089 225.064 279.147 227.111 278.732 229.291V229.283Z" fill="#9F616A"/>
<path d="M314.859 92.5809H303.195C294.949 93.8341 292.709 98.2314 290.833 106.359C287.971 118.757 284.315 135.264 285.042 135.509C286.206 135.894 306.064 145.237 316.186 143.102L314.859 92.5809Z" fill="#E2E3E4"/>
<path d="M326.138 363.62H310.61V385.651H326.138V363.62Z" fill="#9F616A"/>
<path d="M295.49 398.984C293.859 398.984 292.406 398.947 291.308 398.843C287.185 398.465 283.248 395.417 281.268 393.638C280.378 392.837 280.096 391.561 280.556 390.464C280.89 389.678 281.549 389.085 282.373 388.855L293.273 385.74L310.922 373.831L311.122 374.187C311.196 374.321 312.931 377.442 313.51 379.548C313.732 380.349 313.673 381.017 313.339 381.536C313.109 381.892 312.783 382.099 312.523 382.218C312.842 382.552 313.843 383.234 316.928 383.723C321.429 384.435 322.379 379.771 322.416 379.578L322.445 379.422L322.579 379.333C324.722 377.954 326.042 377.324 326.494 377.457C326.776 377.539 327.25 377.687 328.533 390.39C328.659 390.79 329.557 393.712 328.949 396.507C328.289 399.548 315 398.502 312.338 398.265C312.264 398.272 302.313 398.984 295.498 398.984H295.49Z" fill="#2F2E43"/>
<path d="M370.353 346.311L357.178 354.528L368.836 373.222L382.012 365.005L370.353 346.311Z" fill="#9F616A"/>
<path d="M352.856 395.966C351.032 395.966 349.356 395.744 348.162 395.536C346.99 395.328 346.071 394.394 345.878 393.222C345.744 392.377 345.989 391.524 346.567 390.894L354.168 382.485L362.844 363.042L363.2 363.235C363.334 363.309 366.456 365.036 368.065 366.52C368.68 367.083 368.984 367.684 368.969 368.299C368.962 368.729 368.799 369.07 368.636 369.315C369.081 369.434 370.289 369.478 373.166 368.262C377.364 366.49 375.702 362.026 375.628 361.84L375.569 361.692L375.636 361.551C376.726 359.245 377.504 358.014 377.964 357.888C378.253 357.807 378.728 357.68 386.536 367.788C386.855 368.055 389.161 370.064 390.125 372.756C391.171 375.685 379.343 381.832 376.963 383.034C376.889 383.093 364.513 392.088 359.426 394.646C357.409 395.662 355.021 395.973 352.848 395.973L352.856 395.966Z" fill="#2F2E43"/>
<path d="M337.573 179.385H294.096L290.151 219.829L307.414 369.263H329.609L320.732 282.956L356.734 360.876L376.459 347.069L348.347 274.324C348.347 274.324 358.388 210.952 350.498 195.165C342.608 179.385 337.573 179.385 337.573 179.385Z" fill="#2F2E43"/>
<path d="M359.203 181.847H290.151L310.87 92.5809H340.954L359.203 181.847Z" fill="#E2E3E4"/>
<path d="M365.417 229.283C366.522 234.711 364.498 239.672 360.909 240.362C357.32 241.051 353.516 237.203 352.418 231.775C351.951 229.61 352.025 227.37 352.633 225.234L338.967 140.143L356.059 136.925L362.659 223.314C364.06 225.064 365.002 227.111 365.417 229.291V229.283Z" fill="#9F616A"/>
<path d="M329.289 92.5809H340.954C349.2 93.8341 351.439 98.2314 353.315 106.359C356.177 118.757 359.833 135.264 359.106 135.509C357.942 135.894 338.084 145.237 327.962 143.102L329.289 92.5809Z" fill="#E2E3E4"/>
</g>
<defs>
<clipPath id="clip0_19_31">
<rect width="557.317" height="400" fill="white" transform="translate(0.0913086)"/>
</clipPath>
</defs>
</svg>
